<?xml version="1.0" encoding="UTF-8"?>
<svg version="1.1" xmlns="http://www.w3.org/2000/svg" width="1011" height="253">
<path d="M0 0 C333.63 0 667.26 0 1011 0 C1011 83.49 1011 166.98 1011 253 C677.37 253 343.74 253 0 253 C0 169.51 0 86.02 0 0 Z " fill="#FEFEFE" transform="translate(0,0)"/>
<path d="M0 0 C12.80950999 9.31600727 22.07120727 22.00816751 25.40625 37.75 C25.65230809 41.3092675 25.63738979 44.87056228 25.65625 48.4375 C25.6871875 49.87125977 25.6871875 49.87125977 25.71875 51.33398438 C25.75352157 57.71022148 24.84653525 62.86253026 22.40625 68.75 C21.85904297 70.09384766 21.85904297 70.09384766 21.30078125 71.46484375 C16.47558449 81.37652951 9.17948251 89.16376876 1.69360352 97.1262207 C-0.92529084 99.91230507 -3.389614 102.71285959 -5.71875 105.75 C-8.58306923 109.19732226 -12.12345928 110.60414698 -16.13671875 112.4453125 C-21.42520703 115.25350818 -24.92770193 119.9332512 -28.65625 124.5 C-31.25294507 127.5979338 -33.77634439 129.27509329 -37.59375 130.75 C-38.25375 130.75 -38.91375 130.75 -39.59375 130.75 C-39.64660156 131.471875 -39.69945312 132.19375 -39.75390625 132.9375 C-40.90376386 136.78818593 -42.96682725 138.19963516 -46.03125 140.75 C-49.85062841 143.93696503 -51.97034012 146.05108496 -53.59375 150.75 C-56.80826269 152.35725635 -60.02987536 151.80748185 -63.59375 151.75 C-63.86638672 152.68972656 -63.86638672 152.68972656 -64.14453125 153.6484375 C-64.39589844 154.46570313 -64.64726562 155.28296875 -64.90625 156.125 C-65.14988281 156.93710938 -65.39351562 157.74921875 -65.64453125 158.5859375 C-66.59375 160.75 -66.59375 160.75 -69.59375 162.75 C-70.25375 162.75 -70.91375 162.75 -71.59375 162.75 C-74.5343117 165.88193875 -74.5343117 165.88193875 -76 169.81640625 C-76.1959375 170.45449219 -76.391875 171.09257812 -76.59375 171.75 C-78.46741633 172.66979983 -80.34470582 173.58285474 -82.23828125 174.4609375 C-90.75327735 179.12088561 -97.41107345 187.60795848 -103.77197266 194.78442383 C-104.33964355 195.41243896 -104.90731445 196.0404541 -105.4921875 196.6875 C-105.99411621 197.25339844 -106.49604492 197.81929687 -107.01318359 198.40234375 C-108.88691478 199.99996441 -110.16838481 200.41050781 -112.59375 200.75 C-114.60321222 200.47949547 -116.60729224 200.15632091 -118.59375 199.75 C-118.26375 198.76 -117.93375 197.77 -117.59375 196.75 C-116.93375 196.75 -116.27375 196.75 -115.59375 196.75 C-119.96465722 191.58483413 -124.4942794 186.82773018 -129.5 182.28125 C-136.62777641 175.69806008 -143.52778713 168.90317332 -150.375 162.03125 C-150.88992004 161.51479919 -151.40484009 160.99834839 -151.93536377 160.46624756 C-155.65839863 156.73104734 -159.37657565 152.99103118 -163.09375 149.25 C-166.84423901 145.47567076 -170.59651455 141.70314908 -174.35301208 137.93479919 C-175.83059611 136.45084531 -177.305087 134.96386835 -178.77941895 133.47668457 C-183.34403319 128.89547835 -187.94042241 124.43384756 -192.87268066 120.24841309 C-195.93927958 117.57854276 -198.75080907 114.65364287 -201.59375 111.75 C-206.95293749 106.32019805 -206.95293749 106.32019805 -212.59375 101.1875 C-213.19703125 100.65511719 -213.8003125 100.12273437 -214.421875 99.57421875 C-216.15350288 98.11977591 -217.95008441 96.74277137 -219.765625 95.39453125 C-228.49764362 88.51783966 -233.15420266 80.66587027 -237.53125 70.5625 C-237.79844849 69.94765747 -238.06564697 69.33281494 -238.34094238 68.69934082 C-241.48790734 61.35870619 -241.48790734 61.35870619 -242.59375 57.75 C-242.09875 56.76 -242.09875 56.76 -241.59375 55.75 C-241.48104691 53.98223124 -241.37380022 52.21381824 -241.30371094 50.44384766 C-240.62728037 33.4747705 -235.70675599 20.88407209 -223.59375 8.75 C-223.02785156 8.1725 -222.46195313 7.595 -221.87890625 7 C-209.96289952 -4.18764446 -194.22266615 -7.14375155 -178.484375 -6.66015625 C-157.30282309 -5.35774394 -141.82142356 13.19214362 -128.12280273 27.46777344 C-122.42494111 33.39220397 -117.13766224 38.34134679 -109.59375 41.75 C-98.08610556 34.55476365 -89.10262733 25.33932645 -79.98828125 15.3984375 C-59.12565216 -7.16122409 -27.87874526 -18.10308133 0 0 Z " fill="#FEFEFE" transform="translate(265.59375,28.25)"/>
<path d="M0 0 C1.86328125 1.4296875 1.86328125 1.4296875 2.86328125 4.4296875 C2.20328125 4.7596875 1.54328125 5.0896875 0.86328125 5.4296875 C0.36828125 6.9146875 0.36828125 6.9146875 -0.13671875 8.4296875 C0.81203125 8.3059375 1.76078125 8.1821875 2.73828125 8.0546875 C8.42798727 8.14590523 12.55459929 10.91214771 16.86328125 14.4296875 C20.22112005 17.90223508 23.26496597 21.62659997 26.296875 25.3828125 C28.69797291 28.52100262 28.69797291 28.52100262 31.86328125 30.4296875 C32.85328125 30.4296875 33.84328125 30.4296875 34.86328125 30.4296875 C35.44078125 29.6046875 36.01828125 28.7796875 36.61328125 27.9296875 C38.86328125 25.4296875 38.86328125 25.4296875 42.61328125 25.1171875 C44.22203125 25.271875 44.22203125 25.271875 45.86328125 25.4296875 C45.79109375 24.69492187 45.71890625 23.96015625 45.64453125 23.203125 C46.14877963 16.80997586 53.37146796 11.76163562 57.92578125 7.6796875 C67.67578125 -0.5703125 67.67578125 -0.5703125 70.86328125 -0.5703125 C70.86328125 0.4196875 70.86328125 1.4096875 70.86328125 2.4296875 C71.52328125 2.4296875 72.18328125 2.4296875 72.86328125 2.4296875 C73.23453125 1.5634375 73.23453125 1.5634375 73.61328125 0.6796875 C75.12062791 -2.03353649 76.4460699 -3.59259413 78.86328125 -5.5703125 C81.5115028 -6.32533737 83.91918052 -6.88742297 86.61328125 -7.3203125 C87.31066406 -7.44535156 88.00804687 -7.57039062 88.7265625 -7.69921875 C90.43634801 -8.0037011 92.1495391 -8.28895185 93.86328125 -8.5703125 C93.86328125 -9.5603125 93.86328125 -10.5503125 93.86328125 -11.5703125 C103.82815085 -11.32426634 113.54084761 -10.50215572 123.36328125 -8.7578125 C124.25740723 -8.60473633 125.1515332 -8.45166016 126.07275391 -8.29394531 C135.43253901 -6.54169639 143.45489056 -3.72997507 150.55078125 2.7421875 C151.10330566 3.23001709 151.65583008 3.71784668 152.22509766 4.22045898 C153.78545945 5.6086984 155.32654704 7.01540434 156.86328125 8.4296875 C157.56839844 9.06390625 158.27351563 9.698125 159 10.3515625 C171.22545508 21.89019426 180.44069604 39.31816068 181.33203125 56.2265625 C181.36610947 58.21067221 181.37599326 60.19532588 181.36328125 62.1796875 C181.35756104 63.22737305 181.35184082 64.27505859 181.34594727 65.35449219 C180.56010978 99.69850088 148.45425091 125.00375651 125.93359375 147.4921875 C124.24626375 149.18019326 122.55908203 150.86834726 120.87203979 152.55664062 C117.36585585 156.06428594 113.85790264 159.57014912 110.34863281 163.07470703 C105.86683159 167.55078085 101.38957796 172.03137249 96.9136219 176.51329041 C93.44263708 179.98789691 89.96926416 183.46010831 86.49517441 186.93161011 C84.84313609 188.58298521 83.19182956 190.23509277 81.5412941 191.88796997 C79.23584115 194.19597941 76.92717823 196.5007311 74.61767578 198.8046875 C73.61380074 199.81159889 73.61380074 199.81159889 72.58964539 200.83885193 C68.74862283 204.66291539 64.80243796 208.3022328 60.68246269 211.82470703 C58.8305006 213.45860837 57.09191389 215.16652681 55.36328125 216.9296875 C52.38767828 219.95230903 49.27349982 222.75012276 46.0625 225.51953125 C41.94357773 229.09706764 37.91088901 232.77191082 33.86328125 236.4296875 C25.94011334 232.97230514 18.76207665 228.22204849 14.48828125 220.4921875 C11.55446877 215.37783872 7.09119353 212.31371359 2.50244141 208.73388672 C-16.36438118 193.72248275 -33.28404952 176.40353922 -50.22265625 159.30712891 C-58.39193616 151.06343216 -58.39193616 151.06343216 -67.01660156 143.30517578 C-71.91419787 138.97268674 -76.51651298 134.3150583 -81.15380859 129.70776367 C-82.38435057 128.48870244 -83.61933462 127.27410751 -84.85888672 126.06420898 C-101.91706672 109.41196015 -117.6689947 89.25323798 -118.60717773 64.39013672 C-118.71778931 55.17738086 -117.38636396 47.10562707 -114.13671875 38.4296875 C-113.55277344 36.74166016 -113.55277344 36.74166016 -112.95703125 35.01953125 C-105.86011021 16.39536273 -92.21530343 1.81290217 -74.13671875 -6.5703125 C-49.30125637 -17.07981436 -23.02028828 -13.58454013 0 0 Z M65.86328125 25.4296875 C64.7340625 26.52023438 64.7340625 26.52023438 63.58203125 27.6328125 C60.38620135 30.75489248 57.37836943 33.96077266 54.48828125 37.3671875 C48.23967702 44.58368487 41.69926236 50.66621406 32.86328125 54.4296875 C23.12692606 48.42170799 15.68267651 40.45197627 7.83032227 32.25976562 C-4.75450173 19.17513154 -18.4181722 6.6291743 -37.51708984 5.89306641 C-54.39979007 5.72628484 -69.71251097 10.8990358 -82.07421875 22.7421875 C-93.21806445 34.5997584 -96.97607118 46.87816491 -97.7421875 62.81054688 C-98.03430901 68.22486803 -98.03430901 68.22486803 -99.13671875 70.4296875 C-97.82906186 74.29841518 -96.12736261 78.0010344 -94.46972656 81.73168945 C-93.65075006 83.58542787 -92.85809526 85.44893062 -92.06640625 87.31445312 C-88.97526462 94.32281733 -86.05348633 99.55125385 -80.13671875 104.4296875 C-78.81951173 105.59023761 -77.50312865 106.75172343 -76.1875 107.9140625 C-75.51799316 108.49220703 -74.84848633 109.07035156 -74.15869141 109.66601562 C-70.80587608 112.59051912 -67.56594034 115.63317323 -64.32421875 118.6796875 C-63.63134766 119.329375 -62.93847656 119.9790625 -62.22460938 120.6484375 C-57.29703708 125.28830168 -52.48540305 130.01919571 -47.76171875 134.8671875 C-45.78242016 136.79935994 -43.80416487 138.57940036 -41.70117188 140.36523438 C-36.60276894 144.81283879 -31.85281317 149.60055168 -27.09040833 154.40083313 C-25.44337992 156.06081809 -23.79307923 157.71748985 -22.14196777 159.37341309 C-18.04482323 163.48380973 -13.95318971 167.59967784 -9.86138916 171.71539307 C-6.39176151 175.20486971 -2.92001078 178.69220858 0.55448914 182.17683411 C2.16720708 183.79595521 3.77684343 185.41809534 5.38635254 187.04040527 C10.17025143 191.84751503 14.97523113 196.56457106 20.18127441 200.92150879 C23.05620201 203.49932506 25.42463963 206.44235151 27.86328125 209.4296875 C26.87328125 209.7596875 25.88328125 210.0896875 24.86328125 210.4296875 C24.86328125 211.0896875 24.86328125 211.7496875 24.86328125 212.4296875 C28.00047555 213.53604105 30.55886186 213.94294791 33.86328125 213.4296875 C37.75720416 210.59184368 40.75821165 207.09366963 43.86328125 203.4296875 C45.07127664 202.03356169 46.27957296 200.63769616 47.48828125 199.2421875 C48.03871094 198.60410156 48.58914062 197.96601563 49.15625 197.30859375 C53.29896451 192.74876382 57.48830654 188.8880099 63.17578125 186.4296875 C66.60631045 184.88192921 66.81559667 184.52341237 68.67578125 180.8671875 C69.06765625 179.7328125 69.45953125 178.5984375 69.86328125 177.4296875 C71.36328125 175.4921875 71.36328125 175.4921875 72.86328125 174.4296875 C73.85328125 174.4296875 74.84328125 174.4296875 75.86328125 174.4296875 C78.05303898 171.14505091 78.86134688 168.22272475 79.86328125 164.4296875 C81.84895833 164.49479167 83.83463542 164.55989583 85.8203125 164.625 C88.17687844 164.56223212 88.17687844 164.56223212 90.86328125 162.4296875 C91.15074219 161.65625 91.43820313 160.8828125 91.734375 160.0859375 C93.54939182 155.8153097 97.11560629 153.58991616 100.6484375 150.7109375 C103.07826137 148.20826176 103.56822594 146.84992052 103.86328125 143.4296875 C104.70890625 143.2234375 105.55453125 143.0171875 106.42578125 142.8046875 C112.38874077 140.41950369 116.24537194 136.24289551 120.30078125 131.3671875 C124.13883809 126.84623316 128.5372867 123.93460518 133.91796875 121.5 C136.09981135 120.29954845 137.22585286 119.10135079 138.80078125 117.1796875 C141.08453908 114.45882333 143.41698494 111.82892372 145.890625 109.28125 C161.45139466 93.18667899 169.44296647 78.59119194 169.140625 55.90625 C168.92243956 49.50831484 167.65184438 44.19852747 164.86328125 38.4296875 C164.45078125 37.51445313 164.03828125 36.59921875 163.61328125 35.65625 C156.90000964 22.03898884 146.09210615 12.34822114 131.92578125 7.0546875 C125.15935091 4.76267133 119.36929168 4.21756803 112.23828125 4.1796875 C110.81708984 4.14875 110.81708984 4.14875 109.3671875 4.1171875 C91.50408171 4.01944137 78.07488355 13.28826682 65.86328125 25.4296875 Z " fill="#CB0953" transform="translate(122.13671875,15.5703125)"/>
<path d="M0 0 C8.75272213 5.80643181 15.15655227 13.11960615 17.359375 23.62890625 C17.61161763 25.51939837 17.81837963 27.41639774 17.984375 29.31640625 C18.07847656 30.33734375 18.17257812 31.35828125 18.26953125 32.41015625 C18.7796286 43.18759768 15.77428688 54.22086636 8.78515625 62.63671875 C0.65237829 70.22260709 -8.56757664 72.89029032 -19.4765625 72.68359375 C-28.12043292 71.78676834 -33.88895312 67.35920884 -39.32421875 60.79296875 C-46.82315439 49.81300294 -46.97868713 37.1301184 -46.015625 24.31640625 C-44.33120046 15.74027903 -39.89884254 9.09467196 -33.703125 3.06640625 C-23.64198379 -3.48503454 -11.11222487 -5.99475289 0 0 Z " fill="#CB0B53" transform="translate(875.015625,149.68359375)"/>
<path d="M0 0 C6.96784247 6.50661413 11.14801469 15.35859319 11.55078125 24.86328125 C11.57028168 26.47124067 11.5737226 28.0794615 11.5625 29.6875 C11.55686035 30.52909668 11.5512207 31.37069336 11.54541016 32.23779297 C11.32912092 43.3070904 8.35130521 52.0813113 0.515625 60.1640625 C-7.31677813 67.19936266 -15.07051914 68.80437655 -25.390625 68.72265625 C-30.60500447 68.18302861 -34.40830136 66.20619875 -38.75 63.375 C-39.8225 62.694375 -40.895 62.01375 -42 61.3125 C-48.77992056 55.24524154 -52.34554268 44.16734896 -53.0859375 35.39453125 C-53.35487893 22.86215629 -51.64617698 11.86425545 -42.75 2.375 C-31.09728886 -9.1745898 -13.07397621 -10.11437281 0 0 Z " fill="#CB0A53" transform="translate(584.75,153.625)"/>
<path d="M0 0 C8.4463298 -0.48728826 15.8402829 1.99472864 22.37109375 7.40625 C31.4531903 16.77169603 33.37622201 26.08957484 33.21679688 38.74511719 C32.79612246 50.16771533 30.38429839 58.84554932 22.1875 67.13671875 C17.02980964 71.57530805 11.65442043 74.82823262 4.75 75.234375 C3.86441406 75.30785156 2.97882812 75.38132812 2.06640625 75.45703125 C-6.56133476 75.88567061 -12.51091796 73.98197922 -19.28515625 68.625 C-23.4758292 64.74573587 -26.16202553 60.52852827 -28.25 55.234375 C-28.60707031 54.39519531 -28.96414063 53.55601562 -29.33203125 52.69140625 C-30.63755274 47.77486786 -30.61847998 43.05042947 -30.625 37.984375 C-30.64949219 36.99824219 -30.67398438 36.01210937 -30.69921875 34.99609375 C-30.73609987 25.66517099 -28.12898171 17.58310213 -22.25 10.234375 C-15.19979354 3.21385362 -9.88851831 1.03005399 0 0 Z " fill="#CB0A53" transform="translate(689.25,146.765625)"/>
<path d="M0 0 C8.26127642 5.69163521 12.10563627 11.66739482 14.57421875 21.22265625 C16.56385761 34.20094276 16.00853879 47.99577879 8.51171875 59.1171875 C2.74104627 66.30443333 -3.88648383 70.51128642 -13 72 C-22.40102673 72.6421754 -29.91344625 72.86622985 -37.578125 66.73828125 C-41.80469931 61.57117804 -41.30685138 54.97510169 -41.30078125 48.66796875 C-41.30506638 47.67678543 -41.3093515 46.68560211 -41.31376648 45.66438293 C-41.31949488 43.57240561 -41.32002105 41.48040838 -41.31567383 39.38842773 C-41.31252079 36.20847075 -41.33596818 33.02945105 -41.36132812 29.84960938 C-41.36360214 27.809897 -41.36430414 25.77018214 -41.36328125 23.73046875 C-41.372491 22.7895488 -41.38170074 21.84862885 -41.39118958 20.87919617 C-41.34719357 14.5157802 -40.903967 7.52517077 -36.68965149 2.40934753 C-27.88126311 -5.48836202 -10.17078116 -5.39463731 0 0 Z " fill="#CB0B53" transform="translate(641,150)"/>
<path d="M0 0 C6.17578502 3.9651347 9.22437826 10.12804905 11.6875 16.88671875 C12.75411267 22.33613983 12.90214255 27.72827711 12.9375 33.26171875 C12.958125 34.0609375 12.97875 34.86015625 13 35.68359375 C13.06363647 45.51542782 9.65359029 55.72038288 2.75 62.90234375 C-5.50527851 69.91933048 -14.60130042 71.46235203 -25.22265625 71.171875 C-31.10726892 70.62879444 -35.62413618 69.61729166 -39.8125 65.32421875 C-41.963572 61.82872674 -42.4455642 59.99384104 -42.48950195 55.90551758 C-42.50233719 54.86716263 -42.51517242 53.82880768 -42.52839661 52.75898743 C-42.53578354 51.63195908 -42.54317047 50.50493073 -42.55078125 49.34375 C-42.558853 48.18679123 -42.56692474 47.02983246 -42.57524109 45.83781433 C-42.58909244 43.38399763 -42.59980987 40.93016158 -42.60766602 38.47631836 C-42.62485009 34.7318844 -42.66872511 30.98833971 -42.71289062 27.24414062 C-42.72301986 24.86068358 -42.73153524 22.47721902 -42.73828125 20.09375 C-42.75578934 18.9768428 -42.77329742 17.85993561 -42.79133606 16.70918274 C-42.77326196 10.19687705 -42.21683842 6.17255048 -38.3125 0.88671875 C-28.11993288 -7.79795923 -11.25892914 -5.4202615 0 0 Z " fill="#CB0952" transform="translate(437.3125,151.11328125)"/>
<path d="M0 0 C3.84176405 0.88040426 5.69637246 2.61814874 8 5.6875 C9.82200133 9.0718892 11.2912705 12.57149564 12.75 16.125 C13.14832031 17.05376953 13.54664063 17.98253906 13.95703125 18.93945312 C15.87465429 23.50599612 17.50163999 27.71220589 18 32.6875 C18.66 32.6875 19.32 32.6875 20 32.6875 C20.09667969 32.05714844 20.19335938 31.42679688 20.29296875 30.77734375 C21.27952476 26.46593047 22.78949052 22.39756669 24.3125 18.25 C24.60833984 17.41662109 24.90417969 16.58324219 25.20898438 15.72460938 C27.42966828 9.65729805 29.45410398 4.38476401 35 0.6875 C37.875 0.1875 37.875 0.1875 41 0.6875 C45.29745904 4.92869784 46.92349151 8.59181678 47.94921875 14.55078125 C48.09277298 15.30103073 48.23632721 16.05128021 48.38423157 16.82426453 C48.68419157 18.41027778 48.97531824 19.9979845 49.25805664 21.5871582 C49.68010963 23.95847696 50.12732752 26.32382501 50.58007812 28.68945312 C57.05762495 63.14044251 57.05762495 63.14044251 55 71.6875 C52.05229659 73.99332495 50.64727784 74.70044556 46.875 74.625 C43.40959344 73.49497612 42.81831852 72.79854643 41 69.6875 C40.34280734 67.05152922 39.82227574 64.53119187 39.39453125 61.859375 C39.20113411 60.73586639 39.20113411 60.73586639 39.00382996 59.58966064 C38.59620146 57.20725195 38.20416283 54.82257997 37.8125 52.4375 C37.5381353 50.81753424 37.26275595 49.19773999 36.98632812 47.578125 C36.31244781 43.61647383 35.65253276 39.65272089 35 35.6875 C34.7733667 36.23688232 34.5467334 36.78626465 34.31323242 37.35229492 C33.27539505 39.86157035 32.23150721 42.36828567 31.1875 44.875 C30.83107422 45.73931641 30.47464844 46.60363281 30.10742188 47.49414062 C25.28310381 59.04594809 25.28310381 59.04594809 22 60.6875 C16.77267288 61.25568773 16.77267288 61.25568773 14.06640625 59.265625 C11.1023458 55.56755336 9.56248548 51.50160534 7.8125 47.125 C7.45736328 46.26197266 7.10222656 45.39894531 6.73632812 44.50976562 C5.40360037 41.25507755 4.11245907 38.0248772 3 34.6875 C2.69512898 36.41510242 2.39030762 38.14271362 2.08569336 39.87036133 C1.81779105 41.38726984 1.54905882 42.90403199 1.27954102 44.4206543 C0.56807512 48.43107307 -0.12969105 52.44289683 -0.796875 56.4609375 C-0.92537842 57.22220947 -1.05388184 57.98348145 -1.1862793 58.76782227 C-1.43245023 60.22839387 -1.67369842 61.68980584 -1.90942383 63.15209961 C-3.0302324 69.73635353 -3.0302324 69.73635353 -5 72.6875 C-8.46923881 75.00032587 -9.92205575 75.11228586 -14 74.6875 C-15.66699219 73.61743164 -15.66699219 73.61743164 -17 71.6875 C-18.22510441 61.04340062 -16.5246115 50.23659961 -14.75 39.75 C-14.51938339 38.34458806 -14.28891608 36.93915161 -14.05859375 35.53369141 C-8.48222853 1.94384404 -8.48222853 1.94384404 0 0 Z " fill="#CB0B54" transform="translate(283,146.3125)"/>
<path d="M0 0 C4.60024953 3.38422347 7.51651886 8.5273093 8.52954102 14.11035156 C8.6990116 16.38959366 8.73528232 18.61739435 8.69140625 20.90234375 C8.67823364 22.08981201 8.67823364 22.08981201 8.66479492 23.30126953 C8.45662568 29.23439993 7.50079172 33.62498553 3.12890625 37.90234375 C0.31640625 40.40234375 0.31640625 40.40234375 -1.87109375 41.90234375 C-0.86061905 46.99339569 2.45226181 50.53913371 5.62304688 54.50585938 C8.80268694 58.71326188 9.82018239 61.45189728 9.12890625 66.90234375 C7.56640625 69.33984375 7.56640625 69.33984375 5.12890625 70.90234375 C1.3064054 71.45834387 -0.89694197 71.51424814 -4.203125 69.4375 C-7.8466122 65.97538698 -10.39710014 62.04267213 -13.12109375 57.83984375 C-13.6625 57.02451172 -14.20390625 56.20917969 -14.76171875 55.36914062 C-18.72542331 49.33935506 -18.72542331 49.33935506 -19.87109375 45.90234375 C-22.84109375 45.90234375 -25.81109375 45.90234375 -28.87109375 45.90234375 C-28.8246875 47.38347656 -28.77828125 48.86460937 -28.73046875 50.390625 C-28.69295404 52.33201112 -28.65655356 54.27341901 -28.62109375 56.21484375 C-28.57082031 57.67954102 -28.57082031 57.67954102 -28.51953125 59.17382812 C-28.50664063 60.11162109 -28.49375 61.04941406 -28.48046875 62.015625 C-28.45952148 62.87969971 -28.43857422 63.74377441 -28.41699219 64.6340332 C-28.87109375 66.90234375 -28.87109375 66.90234375 -30.76831055 68.6784668 C-34.37970686 70.78039756 -36.73695206 70.42731412 -40.87109375 69.90234375 C-43.54235587 66.48982189 -44.24800554 63.87655803 -44.25927734 59.59643555 C-44.26873383 58.56153488 -44.27819031 57.52663422 -44.28793335 56.46037292 C-44.28186066 55.35196548 -44.27578796 54.24355804 -44.26953125 53.1015625 C-44.27383652 51.37604912 -44.27383652 51.37604912 -44.27822876 49.61567688 C-44.2802684 47.18396512 -44.27474561 44.75223693 -44.26220703 42.32055664 C-44.24619686 38.61371765 -44.26203738 34.90797633 -44.28125 31.20117188 C-44.27926669 28.83463302 -44.27542121 26.46809485 -44.26953125 24.1015625 C-44.27560394 22.99922775 -44.28167664 21.89689301 -44.28793335 20.76115417 C-44.22495966 13.80645161 -43.78551784 7.57422954 -39.29296875 1.9140625 C-27.36233599 -7.53566766 -13.21954524 -7.75509857 0 0 Z " fill="#CB0952" transform="translate(940.87109375,151.09765625)"/>
<path d="M0 0 C1.07454941 -0.00855011 1.07454941 -0.00855011 2.17080688 -0.01727295 C3.68547087 -0.02671036 5.20015527 -0.03325193 6.71484375 -0.03710938 C9.02380453 -0.04681089 11.33187319 -0.07784275 13.640625 -0.109375 C15.11457807 -0.11590605 16.58853748 -0.12115612 18.0625 -0.125 C18.74911713 -0.1373468 19.43573425 -0.1496936 20.14315796 -0.16241455 C24.88929718 -0.14052229 28.25447265 0.79353515 31.6640625 4.203125 C32.06632683 7.82350396 32.14876734 9.56262217 29.9140625 12.515625 C26.00192838 15.44972559 22.38101212 15.32428652 17.5859375 15.30078125 C16.42578125 15.29755859 15.265625 15.29433594 14.0703125 15.29101562 C12.86375 15.28263672 11.6571875 15.27425781 10.4140625 15.265625 C9.19203125 15.26111328 7.97 15.25660156 6.7109375 15.25195312 C3.69529158 15.24017326 0.67967085 15.22223801 -2.3359375 15.203125 C-2.3359375 20.153125 -2.3359375 25.103125 -2.3359375 30.203125 C-0.59957031 30.15091797 -0.59957031 30.15091797 1.171875 30.09765625 C2.7109229 30.06950293 4.24998661 30.04220444 5.7890625 30.015625 C6.54960937 29.99048828 7.31015625 29.96535156 8.09375 29.93945312 C13.037973 29.87551921 16.38116849 30.44792994 20.6640625 33.203125 C22.10141496 36.07782993 22.04578899 38.02207088 21.6640625 41.203125 C19.49881133 43.67390241 17.77492046 45.04206297 14.47167969 45.52099609 C11.92025298 45.59669553 9.40208919 45.55202686 6.8515625 45.453125 C5.52608398 45.42605469 5.52608398 45.42605469 4.17382812 45.3984375 C2.00343707 45.35151013 -0.16639269 45.27977231 -2.3359375 45.203125 C-2.3359375 50.153125 -2.3359375 55.103125 -2.3359375 60.203125 C0.84289062 60.15091797 0.84289062 60.15091797 4.0859375 60.09765625 C6.14451755 60.07424212 8.20308262 60.05603624 10.26171875 60.03833008 C11.68952096 60.02326819 13.1172771 60.00281438 14.54492188 59.97680664 C16.60037623 59.94030658 18.65521755 59.92337334 20.7109375 59.91015625 C22.56477051 59.88659058 22.56477051 59.88659058 24.45605469 59.86254883 C27.88526945 60.2266093 29.25628573 60.78577457 31.6640625 63.203125 C32.35734389 65.91074365 32.14507498 68.46020859 31.6640625 71.203125 C29.85242983 73.87743989 28.78645173 74.16232859 25.6640625 75.203125 C21.28584277 75.40887816 16.9051732 75.38892512 12.52270508 75.38842773 C10.36975105 75.39060659 8.21731603 75.4087523 6.06445312 75.42773438 C4.68489757 75.43067018 3.3053396 75.43265372 1.92578125 75.43359375 C0.67756592 75.43770264 -0.57064941 75.44181152 -1.85668945 75.44604492 C-6.33864498 75.1331163 -9.89613385 74.27269342 -13.5234375 71.578125 C-18.65056674 64.85981772 -18.78205974 57.81128674 -18.734375 49.6953125 C-18.73868027 48.06893356 -18.73868027 48.06893356 -18.74307251 46.40969849 C-18.74510523 44.12875849 -18.73963109 41.84780074 -18.72705078 39.56689453 C-18.71095521 36.08196028 -18.72694326 32.59818025 -18.74609375 29.11328125 C-18.74411179 26.89062245 -18.74026909 24.66796437 -18.734375 22.4453125 C-18.74044769 21.40768768 -18.74652039 20.37006287 -18.7527771 19.30099487 C-18.70000223 13.86102471 -18.4547798 9.87158663 -15.3359375 5.203125 C-10.40027643 0.63763851 -6.50912365 0.04005264 0 0 Z " fill="#CB0A53" transform="translate(359.3359375,146.796875)"/>
<path d="M0 0 C3.88591767 2.22052438 4.76461588 3.17615557 6 7.5 C6 11 6 11 5.0625 13.4375 C1.9142149 15.82256447 -1.25171686 15.50457658 -5 15 C-5.928125 14.67 -6.85625 14.34 -7.8125 14 C-12.46362971 12.54082205 -17.16028909 12.48335896 -22 13 C-25.19997155 14.6408946 -25.19997155 14.6408946 -25.5625 17.375 C-25.22055506 20.18301699 -25.22055506 20.18301699 -22.8125 22.0625 C-19.59975881 23.97030355 -16.19949595 24.89960919 -12.625 25.9375 C-3.87802817 28.49077798 2.35652131 31.78621271 7.07421875 39.83203125 C9.22603048 44.87108404 8.77549144 50.64357108 7.08984375 55.765625 C3.38979667 63.71299301 -1.82971267 68.22863945 -10.0234375 71.2734375 C-18.70561638 73.39270951 -28.96780239 73.25924466 -37 69 C-39.87562383 67.05849601 -42.41733305 65.1653339 -44 62 C-44.45371143 54.85404504 -44.45371143 54.85404504 -42.9375 52 C-39.79928609 50.38027669 -37.47482259 50.58773291 -34 51 C-31.96868328 52.28511874 -29.96722008 53.61876037 -28 55 C-22.48857326 56.4697138 -15.82919628 57.1040766 -10.4375 55 C-8.12539722 51.78316135 -8.74498828 48.88892873 -9 45 C-9.721875 44.71125 -10.44375 44.4225 -11.1875 44.125 C-12.88673724 43.4453051 -14.57760194 42.74328803 -16.25 42 C-18.65983378 41.12369681 -20.74169709 40.68546926 -23.25 40.25 C-29.85806937 38.84895691 -34.94703348 35.20693901 -39.5 30.3125 C-42.95361588 24.98817552 -42.5295544 19.12881347 -42 13 C-40.44052007 6.64617299 -36.72786831 3.59578583 -31.31640625 0.2265625 C-21.58723162 -4.92514211 -10.02540275 -4.40510121 0 0 Z " fill="#CB0B54" transform="translate(995,150)"/>
<path d="M0 0 C2.84492734 1.7058451 4.45716879 3.25381371 6 6.19921875 C6.59807728 9.86244209 6.48384007 11.46378184 4.4375 14.57421875 C1.05597978 16.82856556 -0.98115658 16.60110309 -5 16.19921875 C-7.02049934 15.72989016 -9.01650076 15.19478238 -11.01953125 14.65625 C-15.20459416 13.69046625 -18.69344261 13.68267281 -22.6875 15.26171875 C-26.70019245 18.62370432 -29.03268694 23.03711542 -30 28.19921875 C-30.53058009 35.91303696 -30.25861705 42.16060593 -27 49.19921875 C-26.67 50.18921875 -26.34 51.17921875 -26 52.19921875 C-21.25535281 55.04600706 -16.467128 55.91031479 -11 55.19921875 C-9.29165228 54.58795058 -7.60349781 53.91793427 -5.9375 53.19921875 C-1.77459429 51.41237153 1.4116565 50.35646178 6 51.19921875 C8.72590772 54.01031108 8.98334268 55.74114252 9.125 59.63671875 C7.61198813 64.42792301 5.10624433 66.46755941 1 69.19921875 C-6.52836137 73.05520872 -16.56958484 73.49440398 -24.71875 71.55078125 C-34.45594712 68.03457118 -40.01880875 62.07410715 -44.7734375 53.04296875 C-49.21307511 42.7497962 -49.8755135 30.07942128 -46.03515625 19.43359375 C-41.81981544 10.33482037 -34.75087629 1.8881271 -25.234375 -1.90234375 C-16.85433289 -4.23013323 -7.87940069 -3.69346907 0 0 Z " fill="#CC0C54" transform="translate(524,149.80078125)"/>
<path d="M0 0 C2.27341671 3.55839137 1.90214708 6.06817625 1.4375 10.25 C0.4375 12.25 0.4375 12.25 -1.5625 13.25 C-5.52203995 13.56931774 -8.33189313 13.75486436 -12 12.25 C-17.07062921 10.27121787 -21.83816218 10.52047246 -26.8125 12.625 C-32.48398859 18.03869365 -34.85531854 23.93450839 -35.1875 31.75 C-34.85576485 39.55499086 -32.46961316 45.41049412 -26.875 50.875 C-22.30995567 52.76992406 -18.43627228 53.03584855 -13.5625 52.25 C-11.41384766 51.35504965 -9.46495792 50.30135249 -7.4453125 49.1484375 C-4.43053519 47.70985082 -1.81949989 47.86682354 1.4375 48.25 C4.4375 50.25 4.4375 50.25 4.90625 52.23828125 C4.96417565 56.54650122 4.93524255 58.59582408 2.25 62.125 C1.321875 62.82625 0.39375 63.5275 -0.5625 64.25 C-1.284375 64.806875 -2.00625 65.36375 -2.75 65.9375 C-10.77447682 69.68225585 -21.26017967 71.11710779 -29.6796875 68.15234375 C-40.89730061 62.90720046 -46.14606927 56.71082025 -50.5625 45.25 C-53.64400498 36.00548506 -52.83180459 22.37960256 -48.8828125 13.5703125 C-44.20993876 5.35822078 -38.3337373 -1.51094869 -29.1171875 -4.55859375 C-18.16775489 -7.04710116 -9.37340395 -6.40134904 0 0 Z " fill="#CB0A53" transform="translate(776.5625,152.75)"/>
<path d="M0 0 C1.34302437 -0.00855011 1.34302437 -0.00855011 2.71318054 -0.01727295 C4.61045142 -0.0267289 6.50773876 -0.03325929 8.4050293 -0.03710938 C11.30221405 -0.04680139 14.19868537 -0.07781331 17.09570312 -0.109375 C18.93879787 -0.11590643 20.78189769 -0.12115635 22.625 -0.125 C23.48974442 -0.1373468 24.35448883 -0.1496936 25.24543762 -0.16241455 C30.45491917 -0.14320838 34.14077626 0.33218251 38.01171875 4.203125 C38.40949721 7.78313112 38.48060116 9.56058244 36.32421875 12.515625 C32.44905961 15.34344383 28.98681555 15.23555534 24.3359375 15.21875 C23.52600342 15.21649414 22.71606934 15.21423828 21.8815918 15.21191406 C21.26453369 15.20901367 20.64747559 15.20611328 20.01171875 15.203125 C20.01838058 15.85378937 20.02504242 16.50445374 20.03190613 17.17483521 C20.09835039 23.95569918 20.14355728 30.73647043 20.17651367 37.51757812 C20.19158661 40.04723874 20.21204836 42.57687329 20.23803711 45.10644531 C20.27448491 48.74550823 20.29146045 52.38422516 20.3046875 56.0234375 C20.32017136 57.15178009 20.33565521 58.28012268 20.35160828 59.44265747 C20.35281927 65.11111702 20.28085513 69.33120729 17.01171875 74.203125 C16.01171875 75.203125 16.01171875 75.203125 12.69921875 75.578125 C9.01171875 75.203125 9.01171875 75.203125 6.63671875 72.953125 C4.25189328 68.91726652 3.88668873 65.71525234 3.89819336 61.06738281 C3.89826889 60.04662659 3.89834442 59.02587036 3.89842224 57.97418213 C3.90358353 56.87926453 3.90874481 55.78434692 3.9140625 54.65625 C3.91547745 53.5299115 3.9168924 52.403573 3.91835022 51.24310303 C3.92394676 47.64641665 3.93649865 44.04979256 3.94921875 40.453125 C3.9542342 38.01432382 3.95879703 35.57552166 3.96289062 33.13671875 C3.97391505 27.15883292 3.99064977 21.18098341 4.01171875 15.203125 C2.69107422 15.27273437 2.69107422 15.27273437 1.34375 15.34375 C0.18230469 15.37984375 -0.97914063 15.4159375 -2.17578125 15.453125 C-3.89861328 15.52273437 -3.89861328 15.52273437 -5.65625 15.59375 C-9.65190105 15.12532666 -11.23341352 14.0908806 -13.98828125 11.203125 C-14.81291311 5.32762299 -14.81291311 5.32762299 -12.61328125 2.328125 C-8.63421462 -0.42661344 -4.6775767 0.02282813 0 0 Z " fill="#CC0C54" transform="translate(793.98828125,146.796875)"/>
<path d="M0 0 C5.00505282 2.40627539 8.44449197 6.10279139 11 11 C13.09824557 18.88512665 13.36086468 28.05130578 10 35.5625 C7.26122569 40.23226406 4.11699386 43.15347259 -1 45 C-5.02297874 45.89322592 -8.26396339 45.87827049 -11.984375 43.99609375 C-17.10773794 40.15357155 -19.5701717 35.15079985 -21 29 C-21.97776371 20.78476885 -21.37999724 13.17091012 -17 6 C-11.98197327 0.45712864 -7.24600125 -0.85679069 0 0 Z " fill="#FEFAFB" transform="translate(865,162)"/>
<path d="M0 0 C5.32205157 2.7065134 7.78647906 6.59223103 10.328125 11.9296875 C12.28863367 20.75197651 11.86416323 29.47172377 7.078125 37.3046875 C2.9661333 41.89329641 -0.48500407 44.10494398 -6.734375 44.6171875 C-11.21577532 44.51048749 -13.57661179 43.42693317 -16.921875 40.3046875 C-22.72903272 32.8733643 -23.03605888 24.3128899 -22.20849609 15.26806641 C-21.4217701 9.87892632 -19.30855061 5.51178314 -15.3125 1.81640625 C-10.53664478 -1.3711485 -5.32313728 -1.92585048 0 0 Z " fill="#FEFAFB" transform="translate(569.921875,162.6953125)"/>
<path d="M0 0 C5.00677394 3.29991919 8.32375355 7.96282253 9.75 13.8125 C10.45749022 21.21246522 10.65236282 29.23605905 6.75 35.8125 C-0.35859369 43.51711075 -0.35859369 43.51711075 -5.23828125 44.015625 C-13.57232023 44.18370646 -13.57232023 44.18370646 -17.25 40.8125 C-23.13946035 31.97830948 -24.08633233 24.38281135 -23.25 13.8125 C-21.71476781 7.95525544 -18.96397766 3.68037911 -14.25 -0.1875 C-9.22141801 -1.863694 -4.90969589 -1.79392735 0 0 Z " fill="#FEFBFC" transform="translate(697.25,163.1875)"/>
<path d="M0 0 C3.78696193 0.45443543 4.79426305 1.43999792 7.125 4.375 C8.47142757 7.06785515 8.27448999 9.18304355 8.30200195 12.19824219 C8.31483719 13.4200116 8.32767242 14.64178101 8.34089661 15.90057373 C8.34906524 17.24100336 8.35650874 18.58143759 8.36328125 19.921875 C8.36735678 20.59657082 8.3714323 21.27126663 8.37563133 21.96640778 C8.3964944 25.53945103 8.41079346 29.11245588 8.42016602 32.68554688 C8.43121432 36.36878739 8.46559415 40.05142106 8.50533772 43.73444748 C8.53154157 46.57241911 8.53986126 49.4102472 8.54344749 52.24832916 C8.55066184 54.26352044 8.57708771 56.27861347 8.60383606 58.29364014 C8.57963427 68.50504433 8.57963427 68.50504433 6.31713867 72.21191406 C4.125 74.375 4.125 74.375 0.625 75.0625 C-2.875 74.375 -2.875 74.375 -5.25 72.125 C-7.69467715 67.98785405 -8.00239484 64.65873627 -8.03613281 59.89135742 C-8.04574036 58.79309128 -8.0553479 57.69482513 -8.06524658 56.5632782 C-8.06949646 55.38095108 -8.07374634 54.19862396 -8.078125 52.98046875 C-8.08382507 51.75975174 -8.08952515 50.53903473 -8.09539795 49.28132629 C-8.10484352 46.69822048 -8.11138017 44.11510263 -8.11523438 41.53198242 C-8.12493686 37.58816418 -8.15596423 33.64486776 -8.1875 29.70117188 C-8.1940306 27.19010726 -8.19928085 24.67903892 -8.203125 22.16796875 C-8.2154718 20.99171432 -8.2278186 19.8154599 -8.24053955 18.6035614 C-8.19303309 1.06865649 -8.19303309 1.06865649 0 0 Z " fill="#CC0E56" transform="translate(462.875,146.625)"/>
<path d="M0 0 C6.56407403 0.04519156 11.92024734 0.19992038 16.89453125 4.953125 C21.88146605 12.50476913 22.12143827 21.06697949 20.65234375 29.828125 C19.05310635 35.67225178 16.05653292 38.90933472 11.08203125 42.265625 C8.47283297 43.57022414 6.4926051 43.3982844 3.58203125 43.390625 C2.60234375 43.39320313 1.62265625 43.39578125 0.61328125 43.3984375 C-1.91796875 43.265625 -1.91796875 43.265625 -3.91796875 42.265625 C-3.96731801 36.60564454 -4.00366404 30.94578864 -4.02783203 25.28564453 C-4.03790457 23.35919006 -4.05156318 21.43275092 -4.06884766 19.50634766 C-4.09304116 16.74117248 -4.10443911 13.976199 -4.11328125 11.2109375 C-4.12360382 10.3463089 -4.13392639 9.4816803 -4.14456177 8.59085083 C-4.14495981 6.48108979 -4.04062118 4.37181782 -3.91796875 2.265625 C-1.91796875 0.265625 -1.91796875 0.265625 0 0 Z " fill="#FDF9FA" transform="translate(413.91796875,162.734375)"/>
<path d="M0 0 C4.68202836 0.11613386 7.92298752 0.39668097 11.75 3.3125 C16.36377252 8.90084624 17.52415629 13.68483139 17.3125 20.8125 C17.32345703 21.61558594 17.33441406 22.41867188 17.34570312 23.24609375 C17.27556163 29.01640055 15.98484064 33.49896051 12.75 38.3125 C8.27271916 42.46997506 5.72406489 43.4518899 -0.3125 43.4375 C-1.93865234 43.44136719 -1.93865234 43.44136719 -3.59765625 43.4453125 C-6.25 43.3125 -6.25 43.3125 -7.25 42.3125 C-7.36353016 39.37884254 -7.41418708 36.46961538 -7.41796875 33.53515625 C-7.42129715 32.65347275 -7.42462555 31.77178925 -7.42805481 30.86338806 C-7.43312783 28.99462406 -7.43546302 27.12585096 -7.43530273 25.25708008 C-7.43748808 22.39063656 -7.45563655 19.5245784 -7.47460938 16.65820312 C-7.47754339 14.84635549 -7.47952813 13.03450602 -7.48046875 11.22265625 C-7.48765427 10.3611647 -7.49483978 9.49967316 -7.50224304 8.61207581 C-7.47650491 1.94084528 -6.797947 0.02786044 0 0 Z " fill="#FEFCFD" transform="translate(623.25,162.6875)"/>
<path d="M0 0 C5.50005789 0.03273844 8.27295866 0.60048904 12.3125 4.3125 C13.91979993 7.52709986 13.93180855 10.83638103 13.3125 14.3125 C10.875 17.25 10.875 17.25 8.3125 19.3125 C7.9825 19.6425 7.6525 19.9725 7.3125 20.3125 C4.61595146 20.38569621 1.94558542 20.40492537 -0.75 20.375 C-1.50861328 20.37048828 -2.26722656 20.36597656 -3.04882812 20.36132812 C-4.92841871 20.3495068 -6.80796899 20.33157078 -8.6875 20.3125 C-8.74178973 18.08360504 -8.78042338 15.85432529 -8.8125 13.625 C-8.84730469 11.76294922 -8.84730469 11.76294922 -8.8828125 9.86328125 C-8.47966038 2.53397562 -7.16688413 0.16749176 0 0 Z " fill="#FCF5F8" transform="translate(920.6875,161.6875)"/>
</svg>
